<svg width="18" height="18" viewBox="0 0 18 18" fill="none" xmlns="http://www.w3.org/2000/svg">
<path fill-rule="evenodd" clip-rule="evenodd" d="M0 9C0 4.02955 4.02955 0 9 0C13.9705 0 18 4.02955 18 9C18 13.9705 13.9705 18 9 18C4.02955 18 0 13.9705 0 9ZM9.81818 4.09091C9.41482 4.09091 8.82736 4.20545 8.31764 4.572C7.76455 4.96964 7.36364 5.62418 7.36364 6.54545V8.18182H6.54545C6.32846 8.18182 6.12035 8.26802 5.96691 8.42146C5.81347 8.5749 5.72727 8.783 5.72727 9C5.72727 9.217 5.81347 9.4251 5.96691 9.57854C6.12035 9.73198 6.32846 9.81818 6.54545 9.81818H7.36364V10.6364C7.36364 10.7779 7.31455 11.0095 7.19018 11.1813C7.09691 11.3114 6.93327 11.4545 6.54545 11.4545C6.32846 11.4545 6.12035 11.5407 5.96691 11.6942C5.81347 11.8476 5.72727 12.0557 5.72727 12.2727C5.72727 12.4897 5.81347 12.6978 5.96691 12.8513C6.12035 13.0047 6.32846 13.0909 6.54545 13.0909H11.4545C11.6715 13.0909 11.8796 13.0047 12.0331 12.8513C12.1865 12.6978 12.2727 12.4897 12.2727 12.2727C12.2727 12.0557 12.1865 11.8476 12.0331 11.6942C11.8796 11.5407 11.6715 11.4545 11.4545 11.4545H8.86418C8.96236 11.1543 9 10.8655 9 10.6364V9.81818H9.81818C10.0352 9.81818 10.2433 9.73198 10.3967 9.57854C10.5502 9.4251 10.6364 9.217 10.6364 9C10.6364 8.783 10.5502 8.5749 10.3967 8.42146C10.2433 8.26802 10.0352 8.18182 9.81818 8.18182H9V6.54545C9 6.15764 9.14318 5.994 9.27327 5.90073C9.44509 5.77636 9.67664 5.72727 9.81818 5.72727C9.95973 5.72727 10.1913 5.77636 10.3631 5.90073C10.4932 5.994 10.6364 6.15764 10.6364 6.54545C10.6364 6.76245 10.7226 6.97056 10.876 7.124C11.0294 7.27744 11.2375 7.36364 11.4545 7.36364C11.6715 7.36364 11.8796 7.27744 12.0331 7.124C12.1865 6.97056 12.2727 6.76245 12.2727 6.54545C12.2727 5.62418 11.8702 4.96964 11.3187 4.572C10.879 4.26292 10.3556 4.09511 9.81818 4.09091Z" fill="#FF8C52"/>
</svg>
