<svg width="8" height="13" viewBox="0 0 8 13" fill="none" xmlns="http://www.w3.org/2000/svg">
<path d="M2.13998 0.76925C2.16283 0.691497 2.21026 0.623239 2.27516 0.5747C2.34006 0.526161 2.41893 0.499953 2.49998 0.5H5.49998C5.55936 0.500045 5.61789 0.514194 5.67074 0.541283C5.72359 0.568372 5.76925 0.607626 5.80396 0.655813C5.83868 0.704 5.86145 0.759742 5.8704 0.81845C5.87936 0.877159 5.87424 0.937155 5.85548 0.9935L4.52048 5H7.37498C7.4452 4.99995 7.51403 5.01962 7.57362 5.05677C7.63322 5.09392 7.68118 5.14706 7.71205 5.21014C7.74293 5.27321 7.75547 5.34369 7.74825 5.41354C7.74103 5.4834 7.71434 5.54982 7.67123 5.60525L2.42123 12.3553C2.36744 12.4247 2.29097 12.4731 2.20515 12.492C2.11933 12.5108 2.02962 12.499 1.95166 12.4584C1.87371 12.4179 1.81246 12.3512 1.77862 12.2702C1.74477 12.1891 1.74048 12.0987 1.76648 12.0147L3.11723 7.625H0.624975C0.566674 7.62503 0.509168 7.61147 0.457023 7.5854C0.404879 7.55932 0.359533 7.52144 0.324587 7.47478C0.289641 7.42811 0.266058 7.37394 0.25571 7.31656C0.245362 7.25918 0.248534 7.20019 0.264975 7.14425L2.13998 0.76925Z" fill="#343F48"/>
</svg>
