<svg width="16" height="18" viewBox="0 0 16 18" fill="none" xmlns="http://www.w3.org/2000/svg">
<path d="M3.98964 0.143435C3.83335 0.188587 3.62496 0.376141 3.55202 0.535908C3.49645 0.660944 3.48603 0.775559 3.48603 1.44589V2.21347L3.04493 2.23431C2.15926 2.27251 1.46115 2.59552 0.860281 3.23807C0.346246 3.79031 0.0128174 4.61346 0.0128174 5.33588V5.52344H8.00815H16L15.9792 5.20043C15.9236 4.36686 15.5832 3.6479 14.9719 3.07135C14.3815 2.51216 13.6486 2.22389 12.822 2.22389H12.5164V1.44936C12.5164 0.702622 12.5129 0.664417 12.4365 0.518542C12.1482 -0.0232787 11.3772 -0.0232787 11.1028 0.522015C11.0264 0.66789 11.0229 0.716515 11.0229 1.44936V2.22389H8.0012H4.97951V1.44936C4.97951 0.574113 4.95867 0.48381 4.71554 0.285837C4.51062 0.11565 4.25013 0.0670247 3.98964 0.143435Z" fill="#00C8E8"/>
<path d="M0.019758 11.14L0.0301776 15.2315L0.106588 15.5093C0.217731 15.9053 0.492115 16.4401 0.731766 16.7249C1.16592 17.239 1.77026 17.6245 2.40933 17.7947L2.70455 17.8711H8.00119H13.2978L13.5931 17.7912C13.9126 17.7079 14.3711 17.5029 14.6177 17.3327C15.2116 16.9229 15.6874 16.2456 15.8923 15.5093L15.9722 15.2315L15.9826 11.14L15.9931 7.05205H8.00119H0.00933838L0.019758 11.14ZM11.5161 9.25406C11.9641 9.38604 12.1829 9.83061 11.9989 10.23C11.9086 10.4245 7.59483 14.7105 7.39686 14.8008C7.20236 14.8876 6.94534 14.8841 6.74389 14.7869C6.51813 14.6827 4.0591 12.2758 3.9688 12.0708C3.89933 11.9215 3.88197 11.6228 3.93407 11.4873C3.98964 11.3484 4.18761 11.1435 4.33696 11.0775C4.50715 10.9976 4.76416 10.9941 4.93782 11.0636C5.02118 11.1018 5.40323 11.4561 6.0562 12.1056L7.04606 13.0954L8.88686 11.2546C9.90104 10.2405 10.745 9.41383 10.7659 9.41383C10.7867 9.41383 10.8249 9.38952 10.8492 9.36173C10.8944 9.30616 11.1653 9.21238 11.2869 9.20891C11.3251 9.20544 11.4293 9.22627 11.5161 9.25406Z" fill="#00C8E8"/>
</svg>
