<svg width="30" height="22" viewBox="0 0 30 22" fill="none" xmlns="http://www.w3.org/2000/svg">
<path d="M7.66665 21.6668C5.64442 21.6668 3.91687 20.9668 2.48398 19.5668C1.0502 18.1668 0.333313 16.4557 0.333313 14.4335C0.333313 12.7002 0.855535 11.1557 1.89998 9.80016C2.94442 8.44461 4.31109 7.57794 5.99998 7.20016C6.55554 5.15572 7.66665 3.50016 9.33331 2.2335C11 0.96683 12.8889 0.333496 15 0.333496C17.6 0.333496 19.8053 1.23883 21.616 3.0495C23.4275 4.86105 24.3333 7.06683 24.3333 9.66683C25.8666 9.84461 27.1391 10.5055 28.1506 11.6495C29.1613 12.7944 29.6666 14.1335 29.6666 15.6668C29.6666 17.3335 29.0835 18.7504 27.9173 19.9175C26.7502 21.0837 25.3333 21.6668 23.6666 21.6668H7.66665Z" fill="#FF3E6C"/>
</svg>
