<svg width="10" height="13" viewBox="0 0 10 13" fill="none" xmlns="http://www.w3.org/2000/svg">
<path d="M1.66665 10.4667L4.99998 9.03333L8.33331 10.4667V1.83333H1.66665V10.4667ZM1.26665 12.1C1.04442 12.1889 0.833313 12.1693 0.633313 12.0413C0.433313 11.9138 0.333313 11.7278 0.333313 11.4833V1.83333C0.333313 1.46667 0.46398 1.15267 0.725313 0.891333C0.986202 0.630444 1.29998 0.5 1.66665 0.5H8.33331C8.69998 0.5 9.01398 0.630444 9.27531 0.891333C9.5362 1.15267 9.66665 1.46667 9.66665 1.83333V11.4833C9.66665 11.7278 9.56665 11.9138 9.36665 12.0413C9.16665 12.1693 8.95554 12.1889 8.73331 12.1L4.99998 10.5L1.26665 12.1ZM1.66665 1.83333H8.33331H4.99998H1.66665Z" fill="#6E55FF"/>
</svg>
