<svg width="14" height="14" viewBox="0 0 14 14" fill="none" xmlns="http://www.w3.org/2000/svg">
<path d="M12.3063 6.64364L10.4125 8.53739C10.0875 8.86243 9.70164 9.12027 9.27698 9.29618C8.85232 9.4721 8.39716 9.56264 7.93751 9.56264C7.47785 9.56264 7.0227 9.4721 6.59803 9.29618C6.17337 9.12027 5.78752 8.86243 5.46251 8.53739C5.38238 8.47069 5.31704 8.38802 5.27065 8.29466C5.22427 8.2013 5.19785 8.09929 5.1931 7.99515C5.18835 7.891 5.20536 7.78701 5.24305 7.68981C5.28074 7.59261 5.33827 7.50434 5.41199 7.43062C5.48571 7.3569 5.57398 7.29936 5.67118 7.26167C5.76838 7.22399 5.87238 7.20698 5.97652 7.21173C6.08066 7.21648 6.18267 7.2429 6.27603 7.28928C6.3694 7.33567 6.45206 7.40101 6.51876 7.48114C6.89555 7.85403 7.40426 8.06319 7.93438 8.06319C8.4645 8.06319 8.97321 7.85403 9.35001 7.48114L11.2438 5.58739C11.6192 5.21194 11.8301 4.70272 11.8301 4.17176C11.8301 3.6408 11.6192 3.13158 11.2438 2.75614C10.8683 2.38069 10.3591 2.16976 9.82813 2.16976C9.29717 2.16976 8.78796 2.38069 8.41251 2.75614L7.81251 3.36239C7.67161 3.50328 7.48052 3.58244 7.28126 3.58244C7.082 3.58244 6.8909 3.50328 6.75001 3.36239C6.60911 3.22149 6.52996 3.03039 6.52996 2.83114C6.52996 2.63188 6.60911 2.44078 6.75001 2.29989L7.35626 1.69364C8.01267 1.03722 8.90295 0.668457 9.83126 0.668457C10.7596 0.668457 11.6498 1.03722 12.3063 1.69364C12.9627 2.35005 13.3314 3.24033 13.3314 4.16864C13.3314 5.09694 12.9627 5.98723 12.3063 6.64364ZM6.18751 10.6374L5.58751 11.2436C5.21206 11.6191 4.70285 11.83 4.17188 11.83C3.64092 11.83 3.1317 11.6191 2.75626 11.2436C2.38081 10.8682 2.16989 10.359 2.16989 9.82801C2.16989 9.29705 2.38081 8.78783 2.75626 8.41239L4.65001 6.51864C5.0268 6.14574 5.53551 5.93658 6.06563 5.93658C6.59575 5.93658 7.10446 6.14574 7.48126 6.51864C7.62505 6.63832 7.80838 6.69995 7.99527 6.69142C8.18216 6.68289 8.35911 6.60482 8.4914 6.47253C8.62369 6.34024 8.70176 6.16329 8.71029 5.9764C8.71882 5.78951 8.6572 5.60618 8.53751 5.46239C8.21292 5.1366 7.8272 4.8781 7.40248 4.70171C6.97776 4.52533 6.5224 4.43454 6.06251 4.43454C5.60262 4.43454 5.14725 4.52533 4.72254 4.70171C4.29782 4.8781 3.9121 5.1366 3.58751 5.46239L1.69376 7.35614C1.03735 8.01255 0.668579 8.90283 0.668579 9.83114C0.668579 10.7594 1.03735 11.6497 1.69376 12.3061C2.35017 12.9625 3.24045 13.3313 4.16876 13.3313C5.09706 13.3313 5.98735 12.9625 6.64376 12.3061L7.25001 11.6999C7.3909 11.559 7.47006 11.3679 7.47006 11.1686C7.47006 10.9694 7.3909 10.7783 7.25001 10.6374C7.10911 10.4965 6.91802 10.4173 6.71876 10.4173C6.5195 10.4173 6.3284 10.4965 6.18751 10.6374Z" fill="white"/>
</svg>
