<svg width="14" height="15" viewBox="0 0 14 15" fill="none" xmlns="http://www.w3.org/2000/svg">
<path d="M0 10.1694C0 9.90422 0.105357 9.64986 0.292893 9.46233C0.48043 9.27479 0.734784 9.16943 1 9.16943H3C3.26522 9.16943 3.51957 9.27479 3.70711 9.46233C3.89464 9.64986 4 9.90422 4 10.1694V13.1694C4 13.4347 3.89464 13.689 3.70711 13.8765C3.51957 14.0641 3.26522 14.1694 3 14.1694H1C0.734784 14.1694 0.48043 14.0641 0.292893 13.8765C0.105357 13.689 0 13.4347 0 13.1694V10.1694ZM5 6.16943C5 5.90422 5.10536 5.64986 5.29289 5.46233C5.48043 5.27479 5.73478 5.16943 6 5.16943H8C8.26522 5.16943 8.51957 5.27479 8.70711 5.46233C8.89464 5.64986 9 5.90422 9 6.16943V13.1694C9 13.4347 8.89464 13.689 8.70711 13.8765C8.51957 14.0641 8.26522 14.1694 8 14.1694H6C5.73478 14.1694 5.48043 14.0641 5.29289 13.8765C5.10536 13.689 5 13.4347 5 13.1694V6.16943ZM10 1.16943C10 0.904217 10.1054 0.649863 10.2929 0.462327C10.4804 0.27479 10.7348 0.169434 11 0.169434H13C13.2652 0.169434 13.5196 0.27479 13.7071 0.462327C13.8946 0.649863 14 0.904217 14 1.16943V13.1694C14 13.4347 13.8946 13.689 13.7071 13.8765C13.5196 14.0641 13.2652 14.1694 13 14.1694H11C10.7348 14.1694 10.4804 14.0641 10.2929 13.8765C10.1054 13.689 10 13.4347 10 13.1694V1.16943Z" fill="#FF3E6C"/>
</svg>
