<svg width="12" height="13" viewBox="0 0 12 13" fill="none" xmlns="http://www.w3.org/2000/svg">
<path d="M3.33333 0.169434V12.1694H1.33333C0.979711 12.1694 0.640573 12.029 0.390524 11.7789C0.140476 11.5289 0 11.1897 0 10.8361V1.50277C0 1.14914 0.140476 0.810006 0.390524 0.559958C0.640573 0.309909 0.979711 0.169434 1.33333 0.169434H3.33333ZM12 4.8361V10.8361C12.0001 11.1725 11.8731 11.4965 11.6443 11.7431C11.4156 11.9898 11.1021 12.1409 10.7667 12.1661L10.6667 12.1694H4.66667V4.8361H12ZM10.6667 0.169434C11.0031 0.169327 11.327 0.296371 11.5737 0.525098C11.8204 0.753825 11.9714 1.06733 11.9967 1.40277L12 1.50277V3.50277H4.66667V0.169434H10.6667Z" fill="#FF3E6C"/>
</svg>
