<svg width="14" height="15" viewBox="0 0 14 15" fill="none" xmlns="http://www.w3.org/2000/svg">
<path d="M4.53056 7.16943L5.67778 6.02221C5.83333 5.86666 5.91111 5.68517 5.91111 5.47777C5.91111 5.27036 5.83333 5.08888 5.67778 4.93332C5.52222 4.77777 5.33763 4.69999 5.124 4.69999C4.90985 4.69999 4.725 4.77777 4.56944 4.93332L2.87778 6.62499C2.8 6.70277 2.74504 6.78703 2.71289 6.87777C2.68022 6.96851 2.66389 7.06573 2.66389 7.16943C2.66389 7.27314 2.68022 7.37036 2.71289 7.4611C2.74504 7.55184 2.8 7.6361 2.87778 7.71388L4.56944 9.40555C4.725 9.5611 4.90985 9.63888 5.124 9.63888C5.33763 9.63888 5.52222 9.5611 5.67778 9.40555C5.83333 9.24999 5.91111 9.06851 5.91111 8.8611C5.91111 8.65369 5.83333 8.47221 5.67778 8.31666L4.53056 7.16943ZM9.46945 7.16943L8.32222 8.31666C8.16667 8.47221 8.08889 8.65369 8.08889 8.8611C8.08889 9.06851 8.16667 9.24999 8.32222 9.40555C8.47778 9.5611 8.66263 9.63888 8.87678 9.63888C9.09041 9.63888 9.275 9.5611 9.43056 9.40555L11.1222 7.71388C11.2 7.6361 11.255 7.55184 11.2871 7.4611C11.3198 7.37036 11.3361 7.27314 11.3361 7.16943C11.3361 7.06573 11.3198 6.96851 11.2871 6.87777C11.255 6.78703 11.2 6.70277 11.1222 6.62499L9.43056 4.93332C9.35278 4.85554 9.26541 4.79721 9.16844 4.75832C9.07096 4.71943 8.97374 4.69999 8.87678 4.69999C8.7793 4.69999 8.68207 4.71943 8.58511 4.75832C8.48763 4.79721 8.4 4.85554 8.32222 4.93332C8.16667 5.08888 8.08889 5.27036 8.08889 5.47777C8.08889 5.68517 8.16667 5.86666 8.32222 6.02221L9.46945 7.16943ZM1.55556 14.1694C1.12778 14.1694 0.761444 14.0172 0.456555 13.7129C0.152185 13.408 0 13.0417 0 12.6139V1.72499C0 1.29721 0.152185 0.930878 0.456555 0.625989C0.761444 0.321619 1.12778 0.169434 1.55556 0.169434H12.4444C12.8722 0.169434 13.2386 0.321619 13.5434 0.625989C13.8478 0.930878 14 1.29721 14 1.72499V12.6139C14 13.0417 13.8478 13.408 13.5434 13.7129C13.2386 14.0172 12.8722 14.1694 12.4444 14.1694H1.55556Z" fill="#6E55FF"/>
</svg>
