<svg width="16" height="15" viewBox="0 0 16 15" fill="none" xmlns="http://www.w3.org/2000/svg">
<path d="M5.37563 0.240165C4.70587 0.471437 3.67305 1.05733 3.29435 1.4212C3.00955 1.69256 2.95008 2.04718 3.10657 2.50972C3.22863 2.86126 3.23802 3.36389 3.13161 3.69693C2.9 4.41233 2.2897 4.92113 1.52605 5.03522C1.12544 5.0969 0.868802 5.26033 0.715445 5.55636C0.574607 5.82772 0.474455 6.72814 0.505752 7.44355C0.543309 8.32547 0.627812 8.63383 0.89384 8.86511C1.05346 9.00387 1.18804 9.05321 1.57299 9.12413C2.00177 9.20122 2.2678 9.33999 2.59016 9.66069C3.00329 10.0739 3.16603 10.4624 3.1629 11.036C3.1629 11.3135 3.15038 11.3783 3.04084 11.6836C2.77482 12.436 2.91565 12.7104 3.90465 13.358C4.23953 13.5769 4.90304 13.9161 5.27548 14.058C5.65731 14.2029 5.87952 14.206 6.15494 14.0703C6.277 14.0086 6.38967 13.9254 6.46478 13.8329C6.82783 13.3919 7.07508 13.2069 7.49447 13.0681C8.26751 12.8091 9.10315 13.0558 9.63834 13.6972C9.93879 14.0549 10.3112 14.1844 10.7025 14.061C11.0092 13.9624 11.6883 13.6139 12.1108 13.3364C12.646 12.9849 12.9183 12.7382 13.0091 12.5316C13.1249 12.2664 13.1249 12.1245 13.0122 11.7915C12.887 11.4214 12.8526 10.9651 12.9308 10.6444C13.0998 9.93205 13.6507 9.38316 14.3736 9.21356C14.89 9.09021 14.912 9.08096 15.0903 8.92061C15.2124 8.8096 15.2813 8.72018 15.3251 8.59991C15.5629 7.97085 15.5567 6.16384 15.3157 5.63653C15.2343 5.46385 15.0684 5.28192 14.9182 5.20483C14.865 5.18016 14.7242 5.13699 14.6052 5.11232C13.7759 4.94272 13.1937 4.41541 12.9966 3.65067C12.9214 3.37006 12.9465 2.84276 13.0435 2.58681C13.1405 2.32779 13.1436 2.02251 13.0498 1.8159C12.959 1.62472 12.8808 1.53838 12.5333 1.27318C11.8448 0.745881 10.7713 0.209328 10.3331 0.175407C10.0045 0.147655 9.86994 0.212412 9.45994 0.594783C9.19392 0.847642 9.04995 0.952485 8.87155 1.03883C8.31446 1.31019 7.70416 1.31019 7.13767 1.03883C6.94676 0.946318 6.82157 0.853808 6.54615 0.594783C6.28013 0.345008 6.16433 0.255583 6.04852 0.215495C5.83883 0.147655 5.61662 0.153822 5.37563 0.240165ZM8.59926 4.77312C9.25025 4.9458 9.75101 5.29733 10.1015 5.8308C10.8527 6.95942 10.5178 8.4889 9.35979 9.23206C8.93415 9.5065 8.54919 9.61752 8.00461 9.61752C7.29729 9.61752 6.72768 9.38624 6.23944 8.90519C5.7512 8.42415 5.51647 7.86292 5.51647 7.16602C5.51647 6.62947 5.62914 6.25018 5.90769 5.8308C6.28326 5.26033 6.86852 4.87488 7.5508 4.74228C7.81683 4.69294 8.35514 4.70528 8.59926 4.77312Z" fill="#3AEDBA"/>
</svg>
