<svg version="1.1" xmlns="http://www.w3.org/2000/svg" xmlns:xlink="http://www.w3.org/1999/xlink" width="12" height="13" viewBox="0,0,236.3,256"><g fill="#ededed" fill-rule="nonzero" stroke="none" stroke-width="1" stroke-linecap="butt" stroke-linejoin="miter" stroke-miterlimit="10" stroke-dasharray="" stroke-dashoffset="0" font-family="none" font-weight="none" font-size="none" text-anchor="none" style="mix-blend-mode: normal"><g transform="translate(-0.00385,6.50994) scale(19.69231,19.69231)"><path d="M3.33333,0.16943v11.99997h-2c-0.35362,0 -0.69276,-0.1404 -0.94281,-0.3905c-0.25005,-0.25 -0.39052,-0.5892 -0.39052,-0.9428v-9.33333c0,-0.35363 0.14048,-0.69276 0.39052,-0.94281c0.25005,-0.25005 0.58919,-0.39052 0.94281,-0.39052zM12,4.8361v6c0.0001,0.3364 -0.1269,0.6604 -0.3557,0.907c-0.2287,0.2467 -0.5422,0.3978 -0.8776,0.423l-0.1,0.0033h-6.00003v-7.3333zM10.6667,0.16943c0.3364,-0.00011 0.6603,0.12694 0.907,0.35566c0.2467,0.22873 0.3977,0.54223 0.423,0.87767l0.0033,0.1v2h-7.33333v-3.33334z"></path></g></g></svg>