<svg version="1.1" xmlns="http://www.w3.org/2000/svg" xmlns:xlink="http://www.w3.org/1999/xlink" width="24" height="24" viewBox="0,0,256,256"><defs><clipPath id="clip-1"><rect x="0" y="0" width="24" height="24" id="clip0_1038_6540" fill="none"></rect></clipPath></defs><g fill="none" fill-rule="nonzero" stroke="none" stroke-width="1" stroke-linecap="butt" stroke-linejoin="miter" stroke-miterlimit="10" stroke-dasharray="" stroke-dashoffset="0" font-family="none" font-weight="none" font-size="none" text-anchor="none" style="mix-blend-mode: normal"><g transform="scale(10.66667,10.66667)"><g clip-path="url(#clip-1)"><path d="M5.42496,5.86856c0.16199,-0.01857 0.32606,0.00688 0.47445,0.0736c0.14839,0.06671 0.27547,0.17215 0.36751,0.30492c1.32065,1.90495 2.90614,2.69728 4.66608,2.87727c0.0859,-0.74204 0.289,-1.47525 0.6711,-2.12112c0.5601,-0.94762 1.471,-1.64466 2.7719,-1.9023c1.7985,-0.35646 3.1674,0.28588 3.9611,1.07203l1.6034,-0.29558c0.1678,-0.031 0.341,-0.01402 0.4993,0.04893c0.1584,0.06294 0.2951,0.16924 0.3942,0.30634c0.099,0.1371 0.1562,0.29928 0.1649,0.4674c0.0086,0.16812 -0.0317,0.33516 -0.1163,0.48141l-1.5389,2.6664c0.1404,3.84784 -0.944,6.53364 -3.256,8.38394c-1.2258,0.9811 -2.9813,1.5379 -4.9077,1.7099c-1.94162,0.1729 -4.13644,-0.0362 -6.31784,-0.6644c-0.18638,-0.0536 -0.35002,-0.1655 -0.46623,-0.3189c-0.1162,-0.1534 -0.17867,-0.3399 -0.17796,-0.5313c0.00071,-0.1915 0.06455,-0.3775 0.18188,-0.53c0.11734,-0.1526 0.2818,-0.2633 0.46857,-0.3156c1.09697,-0.308 1.93266,-0.5735 2.68694,-1.0385c-1.07281,-0.5612 -1.86287,-1.2953 -2.42209,-2.1317c-0.77664,-1.1629 -1.06475,-2.46 -1.12202,-3.629c-0.05726,-1.16914 0.11364,-2.25264 0.29438,-3.0335c0.10289,-0.44557 0.22279,-0.89203 0.38832,-1.31908c0.05839,-0.15053 0.15747,-0.28242 0.2865,-0.38135c0.12903,-0.09893 0.28307,-0.16111 0.4454,-0.17981z" fill="#ffffff"></path></g></g></g></svg>