<svg width="32" height="30" viewBox="0 0 32 30" fill="none" xmlns="http://www.w3.org/2000/svg">
<path d="M31.3131 11.2614C31.189 17.3191 25.6649 22.0909 19.1976 22.0909H18.3893C18.1817 22.0911 17.9765 22.1304 17.7857 22.2064C17.5949 22.2823 17.4226 22.3934 17.279 22.5329L13.0807 26.6818L10.1757 29.555C9.98783 29.7397 9.75028 29.8743 9.48776 29.9446C9.22524 30.0149 8.94731 30.0185 8.6828 29.9549C8.4183 29.8914 8.17687 29.763 7.98355 29.5832C7.79023 29.4033 7.65208 29.1785 7.58343 28.9321L6.50555 25.1097L5.67019 22.0959L4.1396 16.5707L3.10482 12.8286C3.04739 12.6181 3.04228 12.3982 3.08987 12.1856C3.13747 11.973 3.23652 11.7733 3.37947 11.6018C3.52242 11.4303 3.7055 11.2915 3.91475 11.196C4.12399 11.1004 4.3539 11.0506 4.58691 11.0505H7.5511C7.89043 11.0504 8.22016 11.1555 8.48845 11.3492C8.75673 11.5429 8.94835 11.8141 9.03318 12.1203L10.262 16.5707L11.3399 20.363L14.7244 17.0177C14.8669 16.8766 15.039 16.7641 15.2299 16.6873C15.4209 16.6104 15.6267 16.5707 15.8346 16.5707H19.4886C20.3023 16.5724 21.1078 16.4181 21.8547 16.1171C22.6017 15.8162 23.2741 15.3752 23.8302 14.8215C24.3864 14.2679 24.8143 13.6135 25.0873 12.899C25.3603 12.1845 25.4725 11.4254 25.417 10.6687C25.2846 9.24473 24.5762 7.92095 23.4353 6.96581C22.2943 6.01067 20.8063 5.49567 19.2731 5.52523H2.26947C1.92989 5.52612 1.5997 5.42136 1.33123 5.22756C1.06276 5.03376 0.871368 4.762 0.787374 4.45535L0.0490246 1.77812C-0.00940972 1.56799 -0.0154308 1.34817 0.031424 1.13553C0.0782788 0.922894 0.176763 0.723083 0.319326 0.551421C0.461889 0.379758 0.644743 0.240805 0.853862 0.145221C1.06298 0.0496369 1.29281 -3.91739e-05 1.52572 2.31784e-08H19.4617C21.0368 0.00379703 22.5953 0.29923 24.0468 0.869139C25.4983 1.43905 26.8137 2.27207 27.9169 3.31982C29.02 4.36758 29.8888 5.60917 30.4727 6.9725C31.0566 8.33582 31.3441 9.79369 31.3184 11.2614H31.3131Z" fill="#6E55FF"/>
</svg>
