<svg width="14" height="14" viewBox="0 0 14 14" fill="none" xmlns="http://www.w3.org/2000/svg">
<path d="M4.5 4.25C4.5 4.44891 4.42098 4.63968 4.28033 4.78033C4.13968 4.92098 3.94891 5 3.75 5C3.55109 5 3.36032 4.92098 3.21967 4.78033C3.07902 4.63968 3 4.44891 3 4.25C3 4.05109 3.07902 3.86032 3.21967 3.71967C3.36032 3.57902 3.55109 3.5 3.75 3.5C3.94891 3.5 4.13968 3.57902 4.28033 3.71967C4.42098 3.86032 4.5 4.05109 4.5 4.25ZM3.75 8C3.94891 8 4.13968 7.92098 4.28033 7.78033C4.42098 7.63968 4.5 7.44891 4.5 7.25C4.5 7.05109 4.42098 6.86032 4.28033 6.71967C4.13968 6.57902 3.94891 6.5 3.75 6.5C3.55109 6.5 3.36032 6.57902 3.21967 6.71967C3.07902 6.86032 3 7.05109 3 7.25C3 7.44891 3.07902 7.63968 3.21967 7.78033C3.36032 7.92098 3.55109 8 3.75 8ZM4.5 10.25C4.5 10.4489 4.42098 10.6397 4.28033 10.7803C4.13968 10.921 3.94891 11 3.75 11C3.55109 11 3.36032 10.921 3.21967 10.7803C3.07902 10.6397 3 10.4489 3 10.25C3 10.0511 3.07902 9.86032 3.21967 9.71967C3.36032 9.57902 3.55109 9.5 3.75 9.5C3.94891 9.5 4.13968 9.57902 4.28033 9.71967C4.42098 9.86032 4.5 10.0511 4.5 10.25ZM6.5 4C6.36739 4 6.24021 4.05268 6.14645 4.14645C6.05268 4.24021 6 4.36739 6 4.5C6 4.63261 6.05268 4.75979 6.14645 4.85355C6.24021 4.94732 6.36739 5 6.5 5H10.5C10.6326 5 10.7598 4.94732 10.8536 4.85355C10.9473 4.75979 11 4.63261 11 4.5C11 4.36739 10.9473 4.24021 10.8536 4.14645C10.7598 4.05268 10.6326 4 10.5 4H6.5ZM6 7.5C6 7.36739 6.05268 7.24021 6.14645 7.14645C6.24021 7.05268 6.36739 7 6.5 7H10.5C10.6326 7 10.7598 7.05268 10.8536 7.14645C10.9473 7.24021 11 7.36739 11 7.5C11 7.63261 10.9473 7.75979 10.8536 7.85355C10.7598 7.94732 10.6326 8 10.5 8H6.5C6.36739 8 6.24021 7.94732 6.14645 7.85355C6.05268 7.75979 6 7.63261 6 7.5ZM6.5 10C6.36739 10 6.24021 10.0527 6.14645 10.1464C6.05268 10.2402 6 10.3674 6 10.5C6 10.6326 6.05268 10.7598 6.14645 10.8536C6.24021 10.9473 6.36739 11 6.5 11H10.5C10.6326 11 10.7598 10.9473 10.8536 10.8536C10.9473 10.7598 11 10.6326 11 10.5C11 10.3674 10.9473 10.2402 10.8536 10.1464C10.7598 10.0527 10.6326 10 10.5 10H6.5ZM0 2C0 1.46957 0.210714 0.960859 0.585786 0.585786C0.960859 0.210714 1.46957 0 2 0H12C12.5304 0 13.0391 0.210714 13.4142 0.585786C13.7893 0.960859 14 1.46957 14 2V12C14 12.5304 13.7893 13.0391 13.4142 13.4142C13.0391 13.7893 12.5304 14 12 14H2C1.46957 14 0.960859 13.7893 0.585786 13.4142C0.210714 13.0391 0 12.5304 0 12V2ZM2 1C1.73478 1 1.48043 1.10536 1.29289 1.29289C1.10536 1.48043 1 1.73478 1 2V12C1 12.2652 1.10536 12.5196 1.29289 12.7071C1.48043 12.8946 1.73478 13 2 13H12C12.2652 13 12.5196 12.8946 12.7071 12.7071C12.8946 12.5196 13 12.2652 13 12V2C13 1.73478 12.8946 1.48043 12.7071 1.29289C12.5196 1.10536 12.2652 1 12 1H2Z" fill="#343F48"/>
</svg>
