<svg width="22" height="22" viewBox="0 0 22 22" fill="none" xmlns="http://www.w3.org/2000/svg">
<path d="M11.0011 0.5C9.17751 0.499862 7.38529 0.974648 5.80093 1.87761C4.21657 2.78058 2.8947 4.08059 1.96546 5.64965C1.03622 7.21871 0.531656 9.00272 0.501442 10.826C0.471227 12.6493 0.916405 14.4491 1.79315 16.0481L0.934946 19.0769C0.854886 19.3529 0.850386 19.6453 0.921915 19.9237C0.993443 20.202 1.13838 20.456 1.34159 20.6592C1.5448 20.8624 1.79883 21.0074 2.07717 21.0789C2.35551 21.1504 2.64794 21.1459 2.92395 21.0659L5.95289 20.2077C7.35659 20.977 8.9176 21.4152 10.5166 21.4889C12.1156 21.5625 13.7103 21.2696 15.1788 20.6326C16.6472 19.9955 17.9506 19.0312 18.9893 17.8132C20.028 16.5953 20.7744 15.156 21.1716 13.6054C21.5688 12.0548 21.6062 10.434 21.281 8.86668C20.9558 7.29941 20.2765 5.82724 19.2952 4.56268C18.3138 3.29812 17.0563 2.27467 15.6188 1.57053C14.1813 0.866394 12.6018 0.500222 11.0011 0.5ZM11.0011 19.8846C9.4062 19.8831 7.84081 19.4543 6.46781 18.6428C6.34111 18.5722 6.19889 18.534 6.05386 18.5317C5.97879 18.5318 5.90408 18.542 5.83173 18.562L2.47971 19.5212L3.43887 16.1692C3.46838 16.0632 3.47643 15.9523 3.46256 15.8431C3.44869 15.7338 3.41318 15.6285 3.3581 15.5332C2.3579 13.8473 1.94334 11.878 2.179 9.93193C2.41466 7.9859 3.2873 6.17244 4.66101 4.77401C6.03471 3.37558 7.83235 2.4707 9.77392 2.20031C11.7155 1.92992 13.692 2.30921 15.3955 3.2791C17.0991 4.24898 18.434 5.75501 19.1924 7.5626C19.9509 9.37019 20.0902 11.3778 19.5887 13.2729C19.0872 15.1679 17.9731 16.8439 16.4198 18.0397C14.8666 19.2356 12.9614 19.8842 11.0011 19.8846ZM15.0397 9.38461C15.0397 9.59883 14.9546 9.80427 14.8031 9.95574C14.6517 10.1072 14.4462 10.1923 14.232 10.1923H7.77026C7.55604 10.1923 7.35059 10.1072 7.19911 9.95574C7.04764 9.80427 6.96254 9.59883 6.96254 9.38461C6.96254 9.1704 7.04764 8.96496 7.19911 8.81349C7.35059 8.66202 7.55604 8.57692 7.77026 8.57692H14.232C14.4462 8.57692 14.6517 8.66202 14.8031 8.81349C14.9546 8.96496 15.0397 9.1704 15.0397 9.38461ZM15.0397 12.6154C15.0397 12.8296 14.9546 13.035 14.8031 13.1865C14.6517 13.338 14.4462 13.4231 14.232 13.4231H7.77026C7.55604 13.4231 7.35059 13.338 7.19911 13.1865C7.04764 13.035 6.96254 12.8296 6.96254 12.6154C6.96254 12.4012 7.04764 12.1957 7.19911 12.0443C7.35059 11.8928 7.55604 11.8077 7.77026 11.8077H14.232C14.4462 11.8077 14.6517 11.8928 14.8031 12.0443C14.9546 12.1957 15.0397 12.4012 15.0397 12.6154Z" fill="white"/>
</svg>
